<svg xmlns="http://www.w3.org/2000/svg" width="256" height="256" viewBox="0 0 100 100"><rect width="100" height="100" rx="20" fill="#a4ff80"></rect><path d="M31.24 18.41L31.24 18.41L49.42 18.95L67.59 18.41Q69.03 18.41 70.16 19.35Q71.28 20.30 71.28 21.92Q71.28 23.54 70.16 24.48Q69.03 25.43 67.59 25.43L67.59 25.43L49.42 24.89Q47.08 24.89 41.86 25.07L41.86 25.07Q41.86 26.15 41.67 28.94L41.67 28.94Q41.14 37.31 41.14 44.60L41.14 44.60Q42.94 44.78 47.26 44.96L47.26 44.96Q49.69 39.83 54.46 36.63Q59.23 33.44 63.45 33.44L63.45 33.44Q68.86 33.44 68.86 37.85L68.86 37.85Q68.86 39.29 67.82 40.32Q66.78 41.36 65.66 41.36Q64.53 41.36 62.87 40.28Q61.20 39.20 58.77 39.20Q56.34 39.20 53.92 40.82Q51.48 42.44 50.31 44.96L50.31 44.96Q53.92 44.96 58.23 44.69Q62.55 44.42 63.50 44.42Q64.44 44.42 65.34 45.32Q66.25 46.22 66.25 47.66Q66.25 49.10 65.34 50.05Q64.44 50.99 63.01 50.99L63.01 50.99L50.50 50.54L49.59 50.54Q50.23 54.05 52.92 56.34Q55.63 58.64 58.77 58.64Q61.93 58.64 64.63 56.70Q67.33 54.77 67.59 54.77L67.59 54.77Q68.86 54.77 68.86 56.03L68.86 56.03Q68.86 56.93 67.37 58.59Q65.88 60.26 62.60 61.88Q59.32 63.50 55.18 63.50Q51.04 63.50 48.20 60.30Q45.37 57.11 45.37 53.15L45.37 53.15Q45.37 52.25 45.55 50.63L45.55 50.63L41.14 50.90Q41.14 61.88 41.54 68.09Q41.95 74.30 41.95 75.11L41.95 75.11L68.77 74.57Q70.20 74.57 71.33 75.52Q72.45 76.46 72.45 78.08Q72.45 79.70 71.33 80.64Q70.20 81.59 68.77 81.59L68.77 81.59L51.48 81.05Q47.89 81.05 42.94 81.32Q37.98 81.59 37.63 81.59L37.63 81.59Q35.73 81.59 34.52 80.15Q33.31 78.71 33.31 77.27Q33.31 75.83 33.71 67.28Q34.12 58.73 34.12 50.77Q34.12 42.80 33.31 25.43L33.31 25.43L31.24 25.43Q29.80 25.43 28.67 24.48Q27.55 23.54 27.55 21.92Q27.55 20.30 28.67 19.35Q29.80 18.41 31.24 18.41Z" fill="#0b481b"></path></svg>