<svg xmlns="http://www.w3.org/2000/svg" width="256" height="256" viewBox="0 0 100 100"><rect width="100" height="100" rx="20" fill="#a4ff80"></rect><path d="M78.31 55.80L78.31 55.80Q80.38 55.80 81.68 55.26Q82.98 54.72 82.98 54.09L82.98 54.09Q82.98 52.83 78.13 52.83Q73.26 52.83 68.41 53.64L68.41 53.64Q71.82 55.80 78.31 55.80ZM37.89 79.02L37.89 79.02L37.89 79.92Q38.98 79.29 44.55 75.96Q50.13 72.63 53.02 71.01L53.02 71.01Q48.70 68.67 42.57 67.32L42.57 67.32Q37.89 73.08 37.89 79.02ZM51.66 90.09L51.66 90.09Q56.07 90.09 60.48 88.92L60.48 88.92Q61.84 86.22 61.84 83.34L61.84 83.34Q61.84 76.95 54.99 72.27L54.99 72.27Q53.64 73.08 50.22 75.24L50.22 75.24Q43.56 79.56 38.34 82.44L38.34 82.44Q40.77 90.09 51.66 90.09ZM78.66 71.82L78.66 71.82Q78.66 69.13 76.69 67.50Q74.70 65.88 70.12 65.88Q65.53 65.88 56.25 71.46L56.25 71.46Q63.18 76.41 63.18 83.25L63.18 83.25Q63.18 85.95 62.10 88.38L62.10 88.38Q69.40 86.04 74.03 81.14Q78.66 76.23 78.66 71.82ZM104.85 26.28L104.85 26.28Q104.85 22.14 95.85 22.14L95.85 22.14Q88.92 22.14 81.63 26.33Q74.34 30.51 69.75 36.41Q65.16 42.30 65.07 47.25L65.07 47.25Q75.06 46.26 84.56 42.39Q94.06 38.52 99.45 34.07Q104.85 29.61 104.85 26.28ZM40.41 31.68L40.41 31.68Q47.61 31.68 54.72 29.61Q61.84 27.54 66.83 24.57Q71.82 21.60 74.97 18.23Q78.13 14.85 78.13 12.16L78.13 12.16Q78.13 7.30 68.50 7.30L68.50 7.30Q56.34 7.30 47.30 14.99Q38.25 22.68 37.35 31.59L37.35 31.59Q38.34 31.68 40.41 31.68ZM26.82 65.79L26.82 65.79Q11.61 65.79 3.38 70.56Q-4.86 75.33-4.86 81.27L-4.86 81.27Q-4.86 85.05-1.26 87.66Q2.34 90.27 8.55 90.27L8.55 90.27Q19.17 90.27 33.75 82.26L33.75 82.26Q33.39 81.09 33.39 79.47L33.39 79.47Q33.39 73.17 39.16 66.69L39.16 66.69Q33.03 65.79 26.82 65.79ZM43.47 66.24L43.47 66.24Q49.68 67.50 54.36 70.29L54.36 70.29Q64.63 64.80 70.61 64.80Q76.59 64.80 79.38 66.78Q82.17 68.76 82.17 72.00L82.17 72.00Q82.17 77.04 76.32 82.40Q70.47 87.75 61.29 90.00L61.29 90.00Q58.41 95.40 51.21 99.72Q44.02 104.04 33.21 106.29L33.21 106.29L33.13 105.13Q43.11 102.87 49.82 99.05Q56.52 95.22 59.59 90.45L59.59 90.45Q54.90 91.35 50.67 91.35L50.67 91.35Q38.25 91.35 34.56 84.42L34.56 84.42Q20.43 91.26 7.20 91.26L7.20 91.26Q0.54 91.26-3.33 88.47Q-7.20 85.68-7.20 81.54L-7.20 81.54Q-7.20 75.06 1.98 69.89Q11.16 64.71 28.45 64.71L28.45 64.71Q35.20 64.71 40.23 65.61L40.23 65.61Q49.41 56.25 65.88 53.01L65.88 53.01Q64.09 51.30 63.18 48.78L63.18 48.78Q61.38 48.96 57.87 48.96L57.87 48.96Q46.63 48.96 41.09 44.60Q35.55 40.23 35.55 33.39L35.55 33.39L35.55 32.58Q26.46 31.77 22.01 27.99Q17.55 24.21 17.55 18.72L17.55 18.72Q17.55 10.98 25.16 3.47Q32.77-4.05 44.28-6.30L44.28-6.30L44.55-4.95Q34.48-3.23 27.55 3.88Q20.61 10.98 20.61 18.45L20.61 18.45Q20.61 23.49 24.35 27.05Q28.09 30.60 35.64 31.41L35.64 31.41Q36.73 21.69 46.35 13.59Q55.98 5.49 69.03 5.49L69.03 5.49Q79.66 5.49 79.66 11.61L79.66 11.61Q79.66 14.67 76.64 18.27Q73.63 21.88 68.54 25.11Q63.45 28.35 55.76 30.51Q48.06 32.67 39.70 32.67L39.70 32.67L37.27 32.67L37.27 33.12Q37.27 39.42 42.62 43.47Q47.97 47.52 58.87 47.52L58.87 47.52Q61.48 47.52 62.82 47.43L62.82 47.43Q62.55 46.08 62.55 44.64L62.55 44.64Q62.55 40.59 64.81 36.45Q67.06 32.31 71.19 28.80Q75.34 25.29 82.00 23.04Q88.66 20.79 96.66 20.79L96.66 20.79Q107.19 20.79 107.19 25.65L107.19 25.65Q107.19 29.34 101.44 34.20Q95.67 39.06 85.64 43.20Q75.60 47.34 65.07 48.51L65.07 48.51Q65.53 51.03 67.32 52.74L67.32 52.74Q73.26 51.75 79.25 51.75Q85.23 51.75 85.23 53.64L85.23 53.64Q85.23 54.81 82.90 55.89Q80.56 56.97 77.59 56.97L77.59 56.97Q70.75 56.97 66.88 53.91L66.88 53.91Q51.84 56.79 43.47 66.24Z" fill="#1e8c3b"></path></svg>